<?xml version="1.0" encoding="UTF-8" standalone="no"?><!DOCTYPE svg PUBLIC "-//W3C//DTD SVG 1.1//EN" "http://www.w3.org/Graphics/SVG/1.1/DTD/svg11.dtd"><svg width="100%" height="100%" viewBox="0 0 24 24" version="1.1" xmlns="http://www.w3.org/2000/svg" xmlns:xlink="http://www.w3.org/1999/xlink" xml:space="preserve" xmlns:serif="http://www.serif.com/" style="fill-rule:evenodd;clip-rule:evenodd;stroke-linejoin:round;stroke-miterlimit:2;"><clipPath id="_clip1"><rect x="0.43" y="1.576" width="22.471" height="21.444"/></clipPath><g clip-path="url(#_clip1)"><g><path d="M12.764,11.471l2.141,1c0.218,0.087 0.48,0.044 0.611,-0.087c0.042,-0.042 0.089,-0.084 0.138,-0.127c0.103,-0.094 0.211,-0.191 0.299,-0.308c0.175,-0.174 0.218,-0.435 0.087,-0.609l-1.004,-2.132c0.349,-0.565 0.611,-1.218 0.786,-1.871l2.271,-0.783c0.219,-0.087 0.35,-0.261 0.393,-0.522l0,-0.609c0,-0.218 -0.174,-0.435 -0.393,-0.522l-2.227,-0.827c-0.175,-0.653 -0.437,-1.305 -0.787,-1.871l0.214,-0.454c4.308,1.301 7.424,5.268 7.424,9.988c-0,1.818 -0.467,3.524 -1.285,5.009c-0.053,-0.123 -0.219,-0.203 -0.345,-0.203l-1.8,0.087c-0.308,-0.394 -0.659,-0.745 -1.054,-1.052l0.088,-1.799c-0,-0.132 -0.088,-0.307 -0.22,-0.351c-0.175,-0.088 -0.307,-0.132 -0.483,-0.176c-0.131,-0.043 -0.307,0 -0.395,0.088l-1.185,1.316c-0.483,-0.087 -1.01,-0.087 -1.493,0l-1.185,-1.316c-0.088,-0.131 -0.263,-0.175 -0.395,-0.088c-0.039,0.02 -0.077,0.03 -0.112,0.04c-0.044,0.013 -0.083,0.023 -0.108,0.048c-0.087,0.044 -0.175,0.088 -0.219,0.088c-0.132,0.044 -0.22,0.219 -0.22,0.351l0.088,1.799c-0.395,0.307 -0.79,0.658 -1.053,1.052l-1.8,-0.087c-0.132,-0 -0.308,0.087 -0.352,0.219c-0.087,0.176 -0.131,0.307 -0.175,0.483c-0.044,0.131 -0,0.307 0.088,0.394l1.317,1.185c-0.088,0.483 -0.088,1.009 -0,1.492l-1.317,1.184c-0.063,0.042 -0.106,0.104 -0.124,0.171c-4.224,-1.36 -7.262,-5.308 -7.262,-9.934c0,-1.592 0.358,-3.098 0.997,-4.445c0.18,0.654 0.442,1.307 0.792,1.873l-1.049,2.175c-0.087,0.218 -0.043,0.479 0.088,0.609c0.042,0.042 0.084,0.089 0.128,0.137c0.092,0.102 0.19,0.21 0.309,0.298c0.174,0.174 0.436,0.218 0.611,0.087l2.14,-1c0.568,0.348 1.223,0.609 1.878,0.783l0.787,2.262c0.087,0.218 0.262,0.349 0.524,0.392l0.611,-0c0.219,-0 0.437,-0.174 0.524,-0.392l0.787,-2.262c0.742,-0.174 1.354,-0.435 1.921,-0.783Zm2.475,10.088c1.126,-0 2.039,-0.9 2.039,-2.011c0,-1.11 -0.913,-2.01 -2.039,-2.01c-1.127,-0 -2.04,0.9 -2.04,2.01c0,1.111 0.913,2.011 2.04,2.011Zm-3.098,-15.853c-0,1.58 -1.285,2.861 -2.871,2.861c-1.585,-0 -2.87,-1.281 -2.87,-2.861c-0,-1.581 1.285,-2.862 2.87,-2.862c1.586,0 2.871,1.281 2.871,2.862Z" style="fill:url(#_Linear2);"/><path d="M15.387,1.907l-0.123,0.26c0.323,0.544 0.57,1.158 0.74,1.772l2.157,0.802l0.001,0.001c0.263,0.105 0.489,0.371 0.489,0.666l0,0.627l-0.002,0.013c-0.051,0.304 -0.211,0.528 -0.486,0.637l-0.003,0.001l-2.199,0.761c-0.171,0.613 -0.417,1.226 -0.74,1.768l0.964,2.052c0.174,0.248 0.099,0.58 -0.103,0.789c-0.095,0.124 -0.207,0.226 -0.304,0.314l-0.009,0.008c0,0 0,0 -0,0c-0.01,0.009 -0.02,0.018 -0.029,0.027c-0.039,0.035 -0.073,0.066 -0.103,0.097l-0.001,0c-0.183,0.182 -0.513,0.226 -0.776,0.121l-0.004,-0.002l-2.072,-0.971c-0.54,0.325 -1.123,0.572 -1.816,0.743l-0.76,2.195l-0.001,0.003c-0.105,0.263 -0.372,0.489 -0.667,0.489l-0.628,0l-0.012,-0.002c-0.304,-0.052 -0.527,-0.212 -0.637,-0.486l-0.001,-0.003l-0.762,-2.197c-0.614,-0.17 -1.228,-0.416 -1.77,-0.739l-2.054,0.963c-0.246,0.173 -0.58,0.1 -0.789,-0.104c-0.128,-0.098 -0.234,-0.215 -0.323,-0.313l-0.005,-0.005c-0.042,-0.047 -0.08,-0.089 -0.118,-0.127l-0,-0c-0.181,-0.183 -0.226,-0.513 -0.121,-0.775l0.002,-0.005l1.016,-2.114c-0.267,-0.449 -0.482,-0.946 -0.647,-1.452c-0.525,1.235 -0.816,2.595 -0.816,4.025c0,4.527 2.936,8.399 7.036,9.777c0.029,-0.04 0.065,-0.076 0.107,-0.105l1.248,-1.126c-0.071,-0.449 -0.071,-0.931 0,-1.381l-1.258,-1.135l-0.003,-0.003c-0.069,-0.069 -0.113,-0.163 -0.135,-0.255c-0.021,-0.091 -0.023,-0.195 0.008,-0.291c0.045,-0.179 0.092,-0.319 0.181,-0.501c0.04,-0.107 0.125,-0.184 0.207,-0.232c0.086,-0.05 0.189,-0.081 0.285,-0.081l0.004,-0l1.72,0.084c0.261,-0.365 0.619,-0.689 0.975,-0.97l-0.084,-1.73l-0,-0.004c-0,-0.096 0.031,-0.199 0.081,-0.285c0.05,-0.085 0.13,-0.173 0.242,-0.211l0.024,-0.008l0.018,-0c0.001,-0.001 0.002,-0.001 0.003,-0.001c0.008,-0.003 0.021,-0.007 0.037,-0.014c0.03,-0.013 0.064,-0.03 0.102,-0.05c0.026,-0.02 0.053,-0.032 0.075,-0.041c0.024,-0.01 0.05,-0.017 0.069,-0.023l0.006,-0.001l0.001,-0.001c0.033,-0.009 0.056,-0.016 0.078,-0.026c0.204,-0.129 0.461,-0.058 0.591,0.126l1.123,1.251c0.448,-0.072 0.928,-0.072 1.377,-0l1.133,-1.262l0.003,-0.003c0.069,-0.068 0.163,-0.112 0.255,-0.133c0.09,-0.021 0.194,-0.023 0.29,0.008c0.178,0.045 0.318,0.091 0.501,0.182c0.106,0.04 0.182,0.125 0.23,0.207c0.05,0.086 0.081,0.189 0.081,0.285l0,0.004l-0.084,1.73c0.36,0.287 0.683,0.612 0.97,0.971l1.725,-0.084l0.004,-0c0.099,-0 0.214,0.033 0.311,0.096c0.744,-1.424 1.167,-3.044 1.167,-4.766c-0,-4.621 -3.011,-8.512 -7.192,-9.837Zm-12.789,5.509c-0,-0 -0,-0 -0,-0l-0,0m12.781,-5.831c-0.097,-0.031 -0.187,0.024 -0.223,0.096l-0,0.002l-0.196,0.414l-0.001,0.002c-0.026,0.059 -0.016,0.122 0.009,0.167l0.001,0.003l0.002,0.002c0.332,0.545 0.584,1.173 0.755,1.803c0.017,0.074 0.073,0.111 0.106,0.125l0.004,0.002l2.215,0.825c0.173,0.07 0.296,0.24 0.296,0.382l-0,0.601c-0.038,0.208 -0.137,0.328 -0.293,0.391l-2.25,0.779c-0.065,0.021 -0.105,0.073 -0.12,0.123l-0.001,0.004c-0.17,0.631 -0.422,1.26 -0.754,1.803c-0.038,0.059 -0.034,0.126 -0.013,0.174l0.001,0.002l1.005,2.139l0.01,0.012c0.073,0.099 0.063,0.276 -0.074,0.413l-0.007,0.008l-0.007,0.008c-0.078,0.104 -0.174,0.192 -0.28,0.287l-0,0.001c-0.009,0.008 -0.018,0.016 -0.027,0.024c-0.039,0.035 -0.079,0.072 -0.116,0.109c-0.079,0.079 -0.271,0.123 -0.444,0.056l-2.122,-0.995l-0.001,-0.001c-0.04,-0.017 -0.081,-0.019 -0.117,-0.011l-0.023,0l-0.036,0.023c-0.544,0.334 -1.131,0.584 -1.843,0.754c-0.071,0.015 -0.113,0.068 -0.131,0.113l-0.002,0.004l-0.78,2.252c-0.07,0.172 -0.24,0.295 -0.382,0.295l-0.601,-0c-0.207,-0.039 -0.328,-0.138 -0.391,-0.294l-0.78,-2.247c-0.021,-0.065 -0.072,-0.104 -0.123,-0.12l-0.002,-0l-0.002,-0.001c-0.633,-0.17 -1.261,-0.421 -1.806,-0.753c-0.058,-0.038 -0.125,-0.034 -0.174,-0.013l-0.001,0.001l-2.14,1.003l-0.013,0.01c-0.098,0.073 -0.276,0.063 -0.413,-0.073l-0.007,-0.008l-0.009,-0.007c-0.105,-0.078 -0.195,-0.176 -0.287,-0.279l-0.008,-0.008c-0.041,-0.045 -0.083,-0.092 -0.126,-0.135c-0.078,-0.079 -0.122,-0.27 -0.055,-0.443l1.038,-2.161c0.024,-0.05 0.029,-0.119 -0.009,-0.18c-0.32,-0.523 -0.566,-1.125 -0.74,-1.736c-0.044,-0.154 -0.273,-0.196 -0.349,-0.026c-0.623,1.349 -0.972,2.853 -0.972,4.44c0,4.697 3.069,8.707 7.339,10.097l0.002,0.001l0.002,0c0.097,0.029 0.194,-0.023 0.229,-0.112c0.01,-0.026 0.028,-0.05 0.056,-0.068l0.009,-0.006l1.31,-1.182c0,-0 0.001,-0 0.001,-0.001c0.045,-0.04 0.071,-0.103 0.059,-0.17c-0.08,-0.454 -0.08,-0.95 0,-1.406c0.012,-0.066 -0.014,-0.131 -0.059,-0.171c-0,-0 -0.001,-0.001 -0.001,-0.001l-1.299,-1.171c-0.019,-0.02 -0.039,-0.057 -0.051,-0.107c-0.011,-0.05 -0.009,-0.098 0.002,-0.131l0.002,-0.006l0.001,-0.006c0.042,-0.167 0.083,-0.288 0.164,-0.453l0.005,-0.009l0.003,-0.01c0.007,-0.02 0.029,-0.05 0.076,-0.077c0.044,-0.026 0.093,-0.039 0.128,-0.04l1.776,0.087c0.067,0.005 0.129,-0.027 0.165,-0.081c0.247,-0.364 0.615,-0.695 0.997,-0.994c0.053,-0.041 0.072,-0.101 0.072,-0.148l-0,-0.004l-0.088,-1.787c0.001,-0.035 0.014,-0.084 0.04,-0.129c0.023,-0.039 0.047,-0.06 0.065,-0.071c0.019,-0.002 0.035,-0.007 0.048,-0.011c0.023,-0.007 0.047,-0.016 0.069,-0.026c0.043,-0.018 0.092,-0.043 0.135,-0.065l0.02,-0.01l0.011,-0.011c0.001,-0 0.001,-0 0.003,-0.001c0.001,-0.001 0.003,-0.001 0.006,-0.002c0.003,-0.001 0.007,-0.003 0.012,-0.004c0.008,-0.003 0.017,-0.005 0.028,-0.009c0.001,0 0.001,0 0.001,0l0.003,-0.001c0.033,-0.009 0.083,-0.023 0.135,-0.049l0.008,-0.004l0.009,-0.006c0.054,-0.036 0.137,-0.023 0.183,0.046l0.006,0.009l1.179,1.313c0.001,0 0.001,0.001 0.001,0.001c0.04,0.045 0.103,0.072 0.171,0.06c0.454,-0.08 0.948,-0.08 1.402,-0.001c0.067,0.013 0.131,-0.013 0.172,-0.059c0,-0 0,-0.001 0.001,-0.001l1.168,-1.301c0.02,-0.018 0.057,-0.039 0.106,-0.05c0.05,-0.012 0.098,-0.01 0.131,0.001l0.006,0.002l0.005,0.002c0.168,0.042 0.289,0.082 0.452,0.164l0.009,0.005l0.011,0.003c0.019,0.007 0.049,0.029 0.076,0.076c0.026,0.045 0.039,0.094 0.04,0.129l-0.087,1.787l-0,0.004c-0,0.047 0.018,0.107 0.072,0.148c0.375,0.293 0.708,0.629 1.002,1.004c0.041,0.054 0.101,0.073 0.149,0.073l0.004,-0l1.782,-0.088c0.067,0.002 0.154,0.043 0.191,0.093l0.002,0.003c0.082,0.105 0.246,0.095 0.311,-0.025l0.001,0l-0,-0c0.812,-1.5 1.274,-3.217 1.274,-5.045c0,-4.794 -3.147,-8.825 -7.504,-10.159Zm-6.098,1.39c-1.502,0 -2.719,1.218 -2.719,2.719c-0,1.501 1.217,2.718 2.719,2.718c1.502,0 2.719,-1.217 2.719,-2.718c-0,-1.501 -1.217,-2.719 -2.719,-2.719Zm-3.024,2.719c0,-1.669 1.354,-3.023 3.024,-3.023c1.67,-0 3.023,1.354 3.023,3.023c0,1.669 -1.353,3.023 -3.023,3.023c-1.67,0 -3.024,-1.354 -3.024,-3.023Zm6.802,13.889c-0,-1.2 0.983,-2.17 2.193,-2.17c1.209,-0 2.193,0.97 2.193,2.17c-0,1.2 -0.984,2.169 -2.193,2.169c-1.21,0 -2.193,-0.969 -2.193,-2.169Zm2.193,-1.865c-1.045,-0 -1.888,0.836 -1.888,1.865c-0,1.028 0.843,1.865 1.888,1.865c1.044,-0 1.888,-0.837 1.888,-1.865c-0,-1.029 -0.844,-1.865 -1.888,-1.865Z" style="fill:url(#_Linear3);"/></g></g><defs><linearGradient id="_Linear2" x1="0" y1="0" x2="1" y2="0" gradientUnits="userSpaceOnUse" gradientTransform="matrix(9.11903,18.1025,-18.1025,9.11903,8.0939,3.59724)"><stop offset="0" style="stop-color:#19fbff;stop-opacity:1"/><stop offset="0.19" style="stop-color:#1fa6ff;stop-opacity:1"/><stop offset="0.4" style="stop-color:#896bff;stop-opacity:1"/><stop offset="0.61" style="stop-color:#ff2cfb;stop-opacity:1"/><stop offset="0.82" style="stop-color:#f7ce58;stop-opacity:1"/><stop offset="1" style="stop-color:#f09343;stop-opacity:1"/></linearGradient><linearGradient id="_Linear3" x1="0" y1="0" x2="1" y2="0" gradientUnits="userSpaceOnUse" gradientTransform="matrix(6.76429,14.817,-14.817,6.76429,8.89917,4.69241)"><stop offset="0" style="stop-color:#f1f2ff;stop-opacity:1"/><stop offset="0.13" style="stop-color:#19fbff;stop-opacity:1"/><stop offset="0.22" style="stop-color:#1fa6ff;stop-opacity:1"/><stop offset="0.35" style="stop-color:#896bff;stop-opacity:1"/><stop offset="0.48" style="stop-color:#f1f2ff;stop-opacity:1"/><stop offset="0.61" style="stop-color:#ff2cfb;stop-opacity:1"/><stop offset="0.72" style="stop-color:#f7ce58;stop-opacity:1"/><stop offset="0.86" style="stop-color:#f09343;stop-opacity:1"/><stop offset="1" style="stop-color:#f1f2ff;stop-opacity:1"/></linearGradient></defs></svg>