<?xml version="1.0" encoding="UTF-8" standalone="no"?><!DOCTYPE svg PUBLIC "-//W3C//DTD SVG 1.1//EN" "http://www.w3.org/Graphics/SVG/1.1/DTD/svg11.dtd"><svg width="100%" height="100%" viewBox="0 0 24 24" version="1.1" xmlns="http://www.w3.org/2000/svg" xmlns:xlink="http://www.w3.org/1999/xlink" xml:space="preserve" xmlns:serif="http://www.serif.com/" style="fill-rule:evenodd;clip-rule:evenodd;stroke-linejoin:round;stroke-miterlimit:2;"><g><path d="M3.536,3.238l16.928,0c-0.072,2.296 -0.057,4.602 -0.315,6.893c-0.248,2.285 -0.795,4.566 -1.832,6.629c-0.443,0.883 -0.944,1.739 -1.563,2.513c-1.259,1.574 -2.935,2.776 -4.757,3.611c-1.681,-0.768 -3.24,-1.847 -4.457,-3.245c-0.743,-0.846 -1.331,-1.816 -1.837,-2.817c-1.001,-1.965 -1.553,-4.132 -1.816,-6.309c-0.294,-2.415 -0.299,-4.85 -0.351,-7.275Z" style="fill:#262222;fill-rule:nonzero;"/><path d="M3.872,3.573l16.241,0c-0.052,2.43 -0.062,4.871 -0.397,7.28c-0.16,1.14 -0.398,2.27 -0.743,3.364c-2.322,-1.837 -4.638,-3.684 -6.96,-5.52c-2.327,1.847 -4.659,3.694 -6.986,5.541c-0.691,-2.178 -0.939,-4.468 -1.037,-6.744c-0.072,-1.305 -0.082,-2.615 -0.118,-3.921Z" style="fill:#fbd150;fill-rule:nonzero;"/><path d="M18.498,4.089c0.356,-0.139 0.815,0.124 0.836,0.516c0.031,0.361 -0.196,0.661 -0.32,0.981c-0.119,0.299 -0.268,0.613 -0.232,0.944c0.134,-0.16 0.232,-0.346 0.356,-0.516c-0.041,0.201 -0.088,0.397 -0.098,0.603c-0.011,0.279 0.036,0.552 0.051,0.826c0.031,0.247 -0.247,0.418 -0.206,0.665c0.062,0.403 0.263,0.779 0.237,1.192c-0.005,0.227 -0.129,0.449 -0.314,0.578c-0.16,0.108 -0.362,0.103 -0.542,0.134c0.01,0.134 -0.005,0.268 0.041,0.397c0.119,0.212 0.403,0.253 0.537,0.439c0.02,0.387 -0.243,0.717 -0.289,1.089c-0.021,0.18 -0.088,0.345 -0.165,0.505c-0.073,-0.088 -0.103,-0.289 -0.258,-0.242c-0.129,0.046 -0.201,0.18 -0.32,0.247c-0.124,0.026 -0.258,0.011 -0.382,0.011c0.026,-0.124 0.052,-0.253 0.088,-0.372c-0.119,-0.005 -0.232,-0.01 -0.351,-0.026c-0.01,-0.103 -0.016,-0.227 0.067,-0.304c0.098,-0.057 0.217,-0.057 0.325,-0.083c-0.103,-0.056 -0.211,-0.108 -0.32,-0.154c0.057,-0.088 0.098,-0.186 0.181,-0.248c0.098,-0.052 0.258,-0.046 0.304,0.072c0.072,0.155 0.109,0.336 0.243,0.454c0.191,-0.165 0.33,-0.418 0.294,-0.676c-0.072,-0.211 -0.284,-0.356 -0.496,-0.387c-0.319,-0.025 -0.675,0.124 -0.959,-0.072c-0.253,-0.211 -0.237,-0.609 -0.109,-0.882c0.114,-0.232 0.393,-0.284 0.62,-0.346c-0.253,-0.505 -0.718,-0.83 -1.141,-1.181c-0.252,-0.201 -0.216,-0.563 -0.134,-0.831c0.109,0.072 0.212,0.15 0.31,0.227c0.139,-0.155 0.273,-0.335 0.48,-0.392c0.216,-0.062 0.438,0 0.645,0.062c-0.098,0.691 0.113,1.424 0.572,1.95c0.098,0.109 0.15,0.243 0.201,0.377c0.021,0.103 0.145,0.108 0.233,0.103c0.237,-0.026 0.428,-0.263 0.412,-0.506c0,-0.237 -0.025,-0.485 -0.134,-0.691c-0.041,-0.082 -0.149,-0.16 -0.242,-0.098c-0.134,0.067 -0.171,0.227 -0.238,0.351c-0.092,-0.191 -0.232,-0.423 -0.098,-0.63c0.088,-0.18 0.305,-0.118 0.46,-0.092c-0.073,-0.496 -0.227,-0.996 -0.135,-1.497c0.098,-0.454 0.233,-0.897 0.274,-1.362c0.041,-0.211 -0.227,-0.356 -0.397,-0.252c-0.129,0.067 -0.109,0.232 -0.114,0.356c0.005,0.258 -0.021,0.515 -0.072,0.773c-0.062,-0.443 -0.248,-0.877 -0.207,-1.336c0.042,-0.289 0.233,-0.567 0.506,-0.676Zm-10.06,0.269c0.098,-0.031 0.18,-0.098 0.268,-0.155c0.015,0.077 0.036,0.16 0.041,0.242c-0.057,0.093 -0.134,0.171 -0.186,0.269c-0.01,0.201 0.098,0.443 -0.082,0.603c-0.341,0.382 -0.903,0.269 -1.352,0.346c-0.01,-0.036 -0.031,-0.108 -0.046,-0.145c0.154,-0.02 0.325,-0.01 0.454,-0.108c0.16,-0.186 0.185,-0.547 -0.062,-0.676c-0.196,-0.077 -0.392,0.042 -0.583,0.078c0.046,-0.098 0.072,-0.233 0.191,-0.269c0.227,-0.087 0.454,-0.165 0.676,-0.252c0.232,-0.098 0.454,0.077 0.681,0.067Zm8.007,-0.052c0.232,-0.129 0.469,0.046 0.691,0.114c0.181,0.082 0.366,-0.011 0.537,-0.073c-0,0.088 0.005,0.171 0.01,0.258c-0.072,0.067 -0.155,0.129 -0.217,0.207c-0.108,0.17 -0.093,0.423 -0.284,0.536c-0.159,0.083 -0.314,0.17 -0.479,0.238c-0.274,0.077 -0.568,0.036 -0.841,-0.026c0.015,-0.036 0.031,-0.073 0.046,-0.114c0.145,-0.015 0.32,0.005 0.423,-0.118c0.155,-0.15 0.129,-0.413 0.01,-0.573c-0.046,-0.067 -0.139,-0.057 -0.211,-0.047c-0.15,0.026 -0.294,0.062 -0.439,0.093c0.037,-0.103 0.042,-0.268 0.186,-0.289c0.191,-0.051 0.387,-0.103 0.568,-0.206Zm-11.846,0.119c0.119,-0.052 0.237,-0.16 0.377,-0.114c0.16,0.031 0.17,0.217 0.222,0.341c0.041,0.025 0.082,0.051 0.118,0.077c0.011,-0.16 0.072,-0.304 0.16,-0.433c0.098,0.087 0.263,0.16 0.253,0.314c-0.005,0.238 -0.031,0.491 0.082,0.712c0.248,0.511 0.795,0.8 1.326,0.924c-0.103,0.144 -0.19,0.294 -0.273,0.449c-0.15,-0.005 -0.299,-0.005 -0.449,-0.005c-0.015,-0.057 -0.036,-0.109 -0.051,-0.166c-0.14,-0.067 -0.284,-0.118 -0.418,-0.201c-0.15,-0.103 -0.171,-0.304 -0.289,-0.438c-0.078,-0.062 -0.176,-0.088 -0.263,-0.124c-0,-0.093 0.015,-0.201 -0.057,-0.279c-0.134,-0.196 -0.382,-0.237 -0.593,-0.283c-0.026,-0.047 -0.052,-0.088 -0.078,-0.135c-0.036,-0.015 -0.103,-0.041 -0.139,-0.056c0.124,-0.088 0.258,-0.16 0.397,-0.232c-0.165,-0.057 -0.273,-0.186 -0.325,-0.351Z" style="fill:#cf1c43;fill-rule:nonzero;"/><path d="M7.581,4.667c0.067,-0.082 0.119,-0.211 0.237,-0.237c0.109,0.015 0.217,0.077 0.248,0.191c-0.155,0.062 -0.32,0.067 -0.485,0.046Z" style="fill:#fbd150;fill-rule:nonzero;"/><path d="M10.677,4.683c0.34,-0.263 0.804,-0.31 1.207,-0.176c0.433,0.14 0.856,0.336 1.321,0.33c-0.171,0.269 -0.444,0.449 -0.743,0.542c-0.248,0.062 -0.496,0 -0.743,-0.01c0.082,0.139 0.155,0.289 0.201,0.444c-0.289,-0.207 -0.629,-0.403 -1.001,-0.326c-0.32,0.073 -0.49,0.393 -0.603,0.666c-0.088,0.201 -0.062,0.423 0.02,0.619c0.078,-0.263 0.315,-0.397 0.48,-0.593c0.062,0.082 0.165,0.155 0.155,0.273c-0.005,0.181 -0.186,0.279 -0.269,0.423c0.011,0.191 0.104,0.387 0.031,0.578c-0.139,0.413 -0.16,0.903 -0.49,1.218c-0.165,0.175 -0.412,0.201 -0.634,0.206c-0.062,0.186 -0.129,0.392 -0.305,0.506c-0.196,0.139 -0.443,0.077 -0.665,0.072c0.098,0.304 0.361,0.495 0.593,0.696c-0.377,0.186 -0.763,0.367 -1.073,0.656c-0.186,0.17 -0.289,0.407 -0.444,0.598c-0.062,-0.077 -0.129,-0.149 -0.196,-0.222c-0.134,0.145 -0.247,0.305 -0.392,0.439c-0.057,-0.021 -0.108,-0.041 -0.165,-0.062c-0.031,0.021 -0.098,0.062 -0.129,0.082c-0.015,-0.077 -0.041,-0.159 -0.046,-0.237c0.041,-0.108 0.118,-0.196 0.18,-0.294c-0.093,0.016 -0.191,0.036 -0.284,0.057c-0.041,-0.088 -0.123,-0.186 -0.051,-0.284c0.072,-0.191 0.335,-0.144 0.428,-0.32c-0.052,0.01 -0.155,0.026 -0.206,0.036c0.025,-0.16 0.103,-0.356 0.299,-0.325c0.196,0.093 0.371,0.294 0.614,0.222c0.242,-0.067 0.505,-0.175 0.655,-0.382c-0.005,-0.025 -0.021,-0.077 -0.026,-0.103c-0.289,-0.119 -0.645,-0.124 -0.861,-0.387c-0.269,-0.263 -0.145,-0.758 0.191,-0.903c0.221,-0.123 0.474,-0.051 0.701,0c-0.201,-0.412 -0.753,-0.345 -1.032,-0.665c-0.077,-0.088 -0.025,-0.217 0.062,-0.274c0.243,-0.175 0.557,-0.129 0.836,-0.165c0.181,-0.01 0.346,-0.077 0.506,-0.155c0.118,0.372 0.273,0.764 0.593,1.012c0.144,0.113 0.346,0.216 0.531,0.124c0.264,-0.135 0.418,-0.429 0.444,-0.712c0.021,-0.171 -0.093,-0.331 -0.248,-0.387c-0.139,-0.067 -0.288,-0.006 -0.428,0.031c0.036,-0.129 0.036,-0.31 0.186,-0.367c0.134,-0.046 0.279,-0.036 0.413,-0.057c-0.217,-0.366 -0.423,-0.789 -0.341,-1.233c0.093,-0.448 0.351,-0.892 0.728,-1.191Z" style="fill:#cf1c43;fill-rule:nonzero;"/><path d="M16.341,4.667c0.047,-0.093 0.062,-0.242 0.197,-0.242c0.118,0.015 0.227,0.067 0.34,0.113c-0.17,0.067 -0.351,0.114 -0.537,0.129Z" style="fill:#fbd150;fill-rule:nonzero;"/><path d="M14.417,4.471c0.134,0.052 0.32,0.088 0.366,0.248c0.026,0.211 -0.02,0.454 0.135,0.624c0.278,0.341 0.722,0.475 1.042,0.758c-0.119,0.135 -0.227,0.269 -0.33,0.413c-0.217,-0.18 -0.47,-0.33 -0.759,-0.345c0.036,-0.047 0.078,-0.093 0.114,-0.14c-0.119,-0.191 -0.274,-0.361 -0.48,-0.449c-0.083,0.083 -0.16,0.176 -0.258,0.243c-0.119,0.01 -0.232,-0.005 -0.351,-0.005c0.031,-0.145 0.072,-0.289 0.134,-0.423c0.088,-0.021 0.176,-0.042 0.258,-0.062c-0.191,-0.052 -0.356,-0.16 -0.49,-0.294c0.093,-0.073 0.17,-0.233 0.31,-0.186c0.077,0.015 0.149,0.041 0.227,0.067c0.025,-0.15 0.061,-0.299 0.082,-0.449Zm-5.603,0.268c0.243,0.356 0.403,0.779 0.382,1.213c-0.021,0.34 -0.237,0.634 -0.248,0.98c-0.01,0.155 0.078,0.289 0.145,0.428c-0.176,-0.036 -0.341,-0.093 -0.506,-0.154c0,0.092 0.005,0.185 0.005,0.278c-0.118,-0.082 -0.237,-0.165 -0.356,-0.242c-0.18,0.123 -0.361,0.268 -0.577,0.32c-0.16,0.046 -0.331,0.036 -0.496,0.077c-0.077,0.051 -0.129,0.134 -0.191,0.201c-0.051,-0.407 -0.031,-0.846 0.165,-1.217c0.279,-0.454 0.821,-0.599 1.239,-0.878c0.33,-0.232 0.428,-0.639 0.438,-1.006Zm6.294,0.196c0.222,0.037 0.444,0.011 0.661,-0.031c0.175,-0.041 0.33,0.062 0.469,0.16c-0.222,0.078 -0.433,0.227 -0.681,0.181c-0.196,-0.021 -0.325,-0.17 -0.449,-0.31Zm2.554,0.011c0.093,0.201 0.171,0.413 0.165,0.634c-0.01,0.547 -0.268,1.063 -0.211,1.61c-0.222,-0.113 -0.47,-0.196 -0.717,-0.144c-0.217,0.02 -0.398,0.16 -0.558,0.299c-0.206,-0.145 -0.448,-0.217 -0.67,-0.32c-0.052,-0.315 0.227,-0.547 0.428,-0.743c0.341,-0.346 0.836,-0.454 1.192,-0.774c0.175,-0.144 0.268,-0.361 0.371,-0.562Zm-11.469,0.211c0.274,-0.02 0.532,-0.113 0.805,-0.129c0.191,-0.015 0.325,0.134 0.449,0.258c-0.289,0.026 -0.578,0.103 -0.867,0.078c-0.16,-0.011 -0.273,-0.119 -0.387,-0.207Zm7.724,1.027c0.118,0.041 0.278,0.046 0.345,0.175c0.109,0.207 0.109,0.454 0.217,0.661c0.072,0.144 0.201,0.263 0.361,0.314c0.315,0.104 0.64,0.171 0.97,0.197c-0.062,0.304 -0.046,0.639 0.16,0.887c-0.289,-0.139 -0.619,-0.196 -0.862,-0.418c-0.17,-0.155 -0.381,-0.248 -0.608,-0.299c0.01,-0.072 0.015,-0.145 0.025,-0.217c-0.139,0.005 -0.314,-0.057 -0.417,0.062c-0.135,0.144 -0.295,0.258 -0.47,0.335c-0.036,-0.129 -0.103,-0.252 -0.088,-0.387c0.057,-0.134 0.217,-0.185 0.325,-0.268c-0.103,-0.129 -0.247,-0.036 -0.376,-0.01c-0.103,-0.026 -0.201,-0.078 -0.299,-0.114c0.036,-0.134 0.046,-0.314 0.19,-0.376c0.212,-0.109 0.413,0.067 0.589,0.17c-0.073,-0.124 -0.166,-0.243 -0.202,-0.382c0.021,-0.118 0.093,-0.222 0.14,-0.33Zm-9.215,0.139c0.119,-0.01 0.243,-0.051 0.356,0.011c0.232,0.123 0.217,0.459 0.454,0.572c0.382,0.196 0.841,0.284 1.254,0.114c-0.026,0.201 -0.021,0.397 -0.01,0.598c-0.294,0.047 -0.568,-0.077 -0.846,-0.149c-0.16,0.01 -0.295,0.129 -0.444,0.191c-0.026,-0.088 -0.01,-0.202 -0.088,-0.258c-0.134,-0.037 -0.227,0.082 -0.325,0.144c-0.098,0.01 -0.196,0.026 -0.299,0.041c-0.052,-0.175 0.036,-0.33 0.072,-0.495c-0.103,-0.057 -0.227,-0.057 -0.34,-0.067c0.01,-0.083 0.015,-0.165 0.051,-0.243c0.078,-0.077 0.191,-0.092 0.289,-0.129c-0.046,-0.108 -0.082,-0.216 -0.124,-0.33Zm1.847,2.312c0.047,-0.186 0.191,-0.382 0.398,-0.398c0.257,-0.025 0.469,0.165 0.66,0.305c-0.196,0.118 -0.387,0.268 -0.449,0.5c-0.072,0.186 -0.021,0.382 0.041,0.563c-0.376,-0.078 -0.748,0.072 -1.057,0.278c0.056,-0.119 0.087,-0.278 -0.057,-0.351c-0.139,-0.113 -0.232,0.067 -0.315,0.16c-0.077,0.129 -0.247,0.119 -0.376,0.155c-0.026,-0.026 -0.083,-0.067 -0.114,-0.093c-0.005,-0.057 -0.01,-0.118 -0.015,-0.175l0.108,-0.201c-0.119,0.031 -0.248,0.061 -0.315,0.18c-0.118,-0.093 -0.242,-0.227 -0.16,-0.387c0.098,-0.227 0.377,-0.149 0.568,-0.118c-0.109,-0.114 -0.212,-0.233 -0.32,-0.351c0.077,-0.186 0.284,-0.284 0.475,-0.196c0.216,0.077 0.196,0.345 0.263,0.526c0.026,0.134 0.175,0.17 0.289,0.201c0.139,0.041 0.304,0.016 0.407,-0.098c0.016,-0.17 -0.046,-0.33 -0.031,-0.5Zm9.529,0.464c0.083,-0.175 0.32,-0.217 0.48,-0.124c0.155,0.072 0.232,0.227 0.305,0.366c-0.155,0.145 -0.341,0.279 -0.423,0.48c-0.078,0.171 -0.052,0.361 -0.042,0.542c-0.335,-0.103 -0.665,0.01 -0.975,0.144c-0.124,-0.149 -0.309,-0.19 -0.49,-0.144c-0.015,0.041 -0.041,0.124 -0.057,0.165c-0.067,-0.062 -0.139,-0.119 -0.196,-0.191c0.011,-0.113 0.047,-0.227 0.067,-0.335c-0.031,0.031 -0.093,0.098 -0.118,0.129c-0.093,-0.078 -0.222,-0.129 -0.248,-0.258c0.031,-0.212 0.299,-0.201 0.392,-0.372c-0.062,0 -0.191,0.006 -0.253,0.011c0.067,-0.114 0.103,-0.284 0.258,-0.305c0.124,-0.02 0.305,0.005 0.346,0.15c0.082,0.222 0.144,0.495 0.377,0.614c0.159,0.113 0.407,0.041 0.474,-0.145c0.088,-0.232 0,-0.5 0.103,-0.727Z" style="fill:#cf1c43;fill-rule:nonzero;"/><path d="M5.368,15.223c2.213,-1.754 4.426,-3.508 6.64,-5.268c2.203,1.749 4.406,3.504 6.614,5.252c-0.165,0.434 -0.351,0.862 -0.552,1.28c-2.023,-1.605 -4.04,-3.209 -6.062,-4.808c-2.028,1.609 -4.055,3.219 -6.088,4.823c-0.196,-0.423 -0.387,-0.846 -0.552,-1.279Z" style="fill:#fff;fill-rule:nonzero;"/><path d="M6.394,17.39c1.868,-1.486 3.746,-2.967 5.619,-4.458c1.862,1.481 3.73,2.962 5.593,4.442c-0.387,0.681 -0.81,1.342 -1.321,1.93c-1.161,1.372 -2.668,2.43 -4.282,3.204c-1.61,-0.759 -3.101,-1.811 -4.267,-3.168c-0.521,-0.593 -0.955,-1.264 -1.342,-1.95Z" style="fill:#fbd150;fill-rule:nonzero;"/><path d="M12.72,14.305c0.144,0.01 0.263,-0.083 0.381,-0.145c-0.03,0.129 -0.087,0.248 -0.18,0.346c-0.165,0.165 -0.114,0.469 -0.341,0.583c-0.412,0.227 -0.846,0.438 -1.32,0.48c0.031,-0.217 0.32,-0.196 0.381,-0.392c0.031,-0.16 0,-0.346 -0.113,-0.465c-0.145,-0.036 -0.279,0.057 -0.418,0.088c0.052,-0.083 0.083,-0.181 0.16,-0.243c0.108,-0.072 0.242,-0.087 0.361,-0.113c0.108,-0.098 0.206,-0.227 0.361,-0.237c0.248,-0.031 0.48,0.082 0.728,0.098Z" style="fill:#cf1c43;fill-rule:nonzero;"/><path d="M11.936,14.624c-0.104,-0.103 -0.016,-0.206 0.087,-0.263c0.114,0.031 0.232,0.062 0.346,0.093c-0.134,0.072 -0.274,0.15 -0.433,0.17Z" style="fill:#fbd150;fill-rule:nonzero;"/><path d="M13.065,14.697c0.078,0.113 0.165,0.232 0.165,0.376c0.037,0.578 -0.201,1.13 -0.165,1.708c0,0.206 0.078,0.397 0.155,0.583c-0.113,-0.057 -0.217,-0.129 -0.34,-0.15c-0.073,0.073 -0.129,0.155 -0.186,0.233c-0.284,-0.181 -0.562,-0.439 -0.593,-0.795c-0.217,0.129 -0.465,0.181 -0.712,0.222c0.031,-0.108 0.067,-0.217 0.098,-0.33c-0.186,0.026 -0.341,0.129 -0.49,0.232c0.103,-0.47 0.366,-0.96 0.846,-1.13c0.32,-0.108 0.655,-0.206 0.908,-0.444c0.154,-0.129 0.232,-0.32 0.314,-0.505Zm-2.548,0.289c0.258,0.046 0.5,-0.073 0.753,-0.093c0.108,0.036 0.201,0.113 0.294,0.18c-0.232,0.067 -0.459,0.171 -0.707,0.16c-0.155,-0.01 -0.242,-0.149 -0.34,-0.247Zm-0.413,0.454c0.021,-0.104 0.077,-0.202 0.119,-0.3c0.098,0.052 0.211,0.098 0.294,0.176c0.129,0.155 0.01,0.413 0.185,0.542c0.114,0.087 0.258,0.108 0.393,0.144c-0.073,0.129 -0.124,0.273 -0.212,0.392c-0.165,0.088 -0.356,0.108 -0.526,0.165c-0.026,-0.118 0.01,-0.278 -0.114,-0.351c-0.191,-0.025 -0.278,0.233 -0.469,0.202l-0.268,-0c-0.026,-0.15 -0.073,-0.341 0.072,-0.449c0.118,-0.021 0.237,-0.021 0.361,-0.031c-0.191,-0.083 -0.377,-0.165 -0.532,-0.305c0.083,-0.149 0.233,-0.335 0.424,-0.232c0.149,0.119 0.252,0.289 0.423,0.382c-0.052,-0.113 -0.114,-0.217 -0.15,-0.335Z" style="fill:#cf1c43;fill-rule:nonzero;"/><path d="M13.623,16.208c-0.104,-0.258 0.005,-0.619 0.288,-0.706c0.331,-0.088 0.687,0.067 0.903,0.325c0.346,0.402 0.418,0.964 0.32,1.47c0.103,-0.083 0.191,-0.186 0.32,-0.227c0.103,0.015 0.206,0.052 0.305,0.083c-0.129,0.134 -0.284,0.268 -0.336,0.459c-0.046,0.139 -0.01,0.283 0.016,0.423c-0.15,0.051 -0.31,0.108 -0.408,0.247c-0.273,0.336 -0.346,0.841 -0.769,1.037c-0.361,0.181 -0.758,0.037 -1.109,-0.082c0.047,0.149 0.088,0.309 0.196,0.428c0.16,0.175 0.377,0.289 0.578,0.413c-0.243,0.242 -0.433,0.521 -0.65,0.784c-0.129,0.165 -0.315,0.268 -0.485,0.392c-0.077,-0.005 -0.155,-0.015 -0.232,-0.021c0.015,-0.061 0.036,-0.128 0.051,-0.19c-0.103,-0.011 -0.221,-0.042 -0.304,0.041c-0.134,0.088 -0.155,0.263 -0.227,0.397c-0.144,0.021 -0.299,0.026 -0.423,0.108c-0.01,-0.118 -0.052,-0.252 0.015,-0.361c0.088,-0.129 0.217,-0.227 0.32,-0.345c-0.124,-0 -0.242,0.046 -0.361,0.072c-0.113,-0.031 -0.217,-0.088 -0.33,-0.134c0.103,-0.129 0.201,-0.289 0.377,-0.325c0.154,-0.057 0.299,0.041 0.433,0.108c-0.088,-0.103 -0.17,-0.211 -0.232,-0.33c-0.016,-0.021 -0.042,-0.067 -0.057,-0.088c0.181,-0.067 0.402,-0.129 0.557,0.021c0.047,0.139 0.036,0.309 0.15,0.423c0.067,0.067 0.16,0.134 0.258,0.113c0.18,-0.108 0.258,-0.314 0.34,-0.5c-0.273,-0.31 -0.681,-0.423 -1.011,-0.65c-0.217,-0.139 -0.377,-0.377 -0.387,-0.64c0.005,-0.186 0.124,-0.356 0.299,-0.423c0.186,-0.093 0.398,-0.005 0.589,0.026c-0.176,-0.186 -0.382,-0.341 -0.62,-0.444c-0.196,-0.093 -0.417,-0.144 -0.593,-0.278c-0.232,-0.186 -0.325,-0.516 -0.242,-0.795c0.242,-0.077 0.521,0.036 0.737,-0.139c0.233,0.299 0.434,0.634 0.774,0.825c0.067,-0.098 0.14,-0.201 0.212,-0.294c0.216,0.418 0.046,0.918 0.258,1.336c0.139,0.274 0.438,0.48 0.753,0.444c0.377,-0.036 0.666,-0.377 0.758,-0.727c0.057,-0.181 -0.087,-0.418 -0.294,-0.398c-0.165,0.052 -0.278,0.202 -0.407,0.305c0.026,-0.212 0.02,-0.465 0.191,-0.625c0.139,-0.072 0.309,-0.072 0.438,-0.165c-0.077,-0.098 -0.186,-0.165 -0.289,-0.237c0.176,0.026 0.351,0.052 0.527,0.088c0.159,-0.377 0.227,-0.826 0.025,-1.207c-0.103,-0.222 -0.314,-0.367 -0.536,-0.455c-0.026,0.031 -0.088,0.088 -0.114,0.119c0.16,0.16 0.377,0.294 0.439,0.526c0.036,0.145 -0.057,0.269 -0.186,0.32c-0.046,0.274 -0.196,0.506 -0.392,0.702c0.005,-0.227 0.005,-0.47 -0.098,-0.681c-0.067,-0.217 -0.227,-0.377 -0.335,-0.568Z" style="fill:#cf1c43;fill-rule:nonzero;"/><path d="M8.53,16.472c0.135,-0.109 0.3,-0.269 0.48,-0.166c0.243,0.078 0.217,0.372 0.336,0.542c0.485,0.274 1.078,0.274 1.614,0.176c-0.015,0.299 0.047,0.613 0.258,0.841c-0.325,-0.109 -0.665,-0.16 -0.97,-0.331c-0.113,-0.056 -0.232,-0.144 -0.366,-0.124c-0.18,0.021 -0.346,0.104 -0.516,0.166c-0.015,-0.15 -0.046,-0.32 -0.211,-0.367c-0.078,0.098 -0.104,0.222 -0.16,0.33c-0.072,0.062 -0.165,0.104 -0.248,0.15c-0.062,-0.077 -0.144,-0.144 -0.175,-0.242c0.015,-0.073 0.046,-0.145 0.067,-0.217c-0.14,0.021 -0.279,0.031 -0.418,0.041c0.02,-0.16 -0.047,-0.392 0.124,-0.49c0.154,-0.067 0.325,-0.015 0.49,-0.01c-0.098,-0.093 -0.201,-0.196 -0.305,-0.299Zm2.069,2.115c-0.056,-0.263 0.207,-0.542 0.47,-0.506c0.314,0.031 0.552,0.279 0.872,0.31c-0.413,0.155 -0.465,0.701 -0.227,1.026c-0.475,-0.067 -0.898,0.186 -1.29,0.408c-0.016,-0.077 -0.026,-0.16 -0.052,-0.237c-0.093,-0.047 -0.196,-0.011 -0.294,-0.011c-0.088,0.006 -0.191,-0.005 -0.253,0.078c-0.118,0.124 -0.258,0.222 -0.402,0.309c-0.036,-0.062 -0.077,-0.129 -0.114,-0.191c0.011,-0.118 0.068,-0.252 0.006,-0.366c-0.119,-0.031 -0.233,0.026 -0.341,0.057c0,-0.155 -0.046,-0.341 0.088,-0.454c0.124,-0.01 0.247,0.005 0.371,-0c0.016,-0.165 -0.17,-0.139 -0.278,-0.17c0.051,-0.129 0.093,-0.32 0.263,-0.32c0.098,-0.005 0.253,-0.005 0.278,0.118c0.052,0.15 0.104,0.32 0.264,0.387c0.283,0.129 0.619,0.088 0.913,0c-0.078,-0.154 -0.212,-0.273 -0.274,-0.438Z" style="fill:#cf1c43;fill-rule:nonzero;"/></g></svg>